<svg width="35" height="35" viewBox="0 0 35 35" fill="none" xmlns="http://www.w3.org/2000/svg">
<path fill-rule="evenodd" clip-rule="evenodd" d="M17.5 0C11.9458 0 6.99544 2.60905 3.78255 6.65365L1.45833 4.375L0 13.125L8.75 11.6667L5.83333 8.75C8.21452 5.57699 11.866 3.41797 16.0417 3.00781V4.375H18.9583V3.00781C25.8683 3.68571 31.3143 9.13167 31.9922 16.0417H30.625V18.9583H31.9922C31.3143 25.8683 25.8683 31.3143 18.9583 31.9922V30.625H16.0417V31.9922C8.65316 31.2687 2.91667 25.0822 2.91667 17.5H0C0 27.1501 7.84994 35 17.5 35C27.1501 35 35 27.1501 35 17.5C35 7.84994 27.1501 0 17.5 0ZM12.3958 11.6667C10.402 11.6667 8.75 13.3187 8.75 15.3125V16.0417H11.6667V15.3125C11.6667 14.8966 11.98 14.5833 12.3958 14.5833C12.8117 14.5833 13.125 14.8966 13.125 15.3125V16.543C13.125 16.748 13.0452 16.9531 12.8971 17.0898L9.20573 20.4167L8.75 20.8724V23.3333H16.0417V20.4167H13.5807L14.8568 19.2318C15.6087 18.5425 16.0417 17.5627 16.0417 16.543V15.3125C16.0417 13.3187 14.3896 11.6667 12.3958 11.6667ZM21.875 18.9583H17.5V11.6667H20.4167V16.0417H21.875V11.6667H24.7917V23.3333H21.875V18.9583Z" fill="#03C871"/>
</svg>
