<svg width="35" height="30" viewBox="0 0 35 30" fill="none" xmlns="http://www.w3.org/2000/svg">
<path fill-rule="evenodd" clip-rule="evenodd" d="M14.3416 20.6075L11.039 29.274H6.324L5.20731 20.6075H0V18.274H4.90664L2.552 0H5.258L7.6132 18.274H12.6031L15.59 10.496H19.526L22.5129 18.274H27.5028L29.858 0H32.523L30.1684 18.274H34.991V20.6075H29.8677L28.751 29.274H24.036L20.7556 20.6075H14.3416ZM11.707 20.6075L9.481 26.404H8.661L7.91394 20.6075H11.707ZM15.2308 18.274H19.8723L17.968 13.243H17.148L15.2308 18.274ZM23.409 20.6075L25.635 26.404H26.455L27.2021 20.6075H23.409Z" fill="#03C871"/>
</svg>
