<svg width="38" height="38" viewBox="0 0 38 38" fill="none" xmlns="http://www.w3.org/2000/svg">
<path d="M16.375 0.625V7.1875L19 9.8125V3.25H28.1875V9.8125H34.75V26.875H24.25V29.5H37.375V7.94629L37.0828 7.59766L30.7766 0.937744L30.4485 0.625H16.375ZM31.074 4.43945L33.7656 7.29004H31.074V4.43945ZM0.625 8.5V37.375H21.625V15.8213L21.3328 15.4727L15.0625 8.5H0.625ZM3.25 11.125H12.4375V17.6875H19V34.75H3.25V11.125ZM15.324 12.3145L18.0156 15.165H15.324V12.3145ZM24.25 13.75V16.375H32.125V13.75H24.25ZM24.25 19V21.625H32.125V19H24.25ZM5.875 21.625V24.25H16.375V21.625H5.875ZM5.875 26.875V29.5H16.375V26.875H5.875Z" fill="#03C871"/>
</svg>
