<svg width="14" height="10" viewBox="0 0 14 10" fill="none" xmlns="http://www.w3.org/2000/svg">
<path opacity="0.5" d="M7.00004 3.25C7.96837 3.25 8.75004 4.03167 8.75004 5C8.75004 5.96833 7.96837 6.75 7.00004 6.75C6.03171 6.75 5.25004 5.96833 5.25004 5C5.25004 4.03167 6.03171 3.25 7.00004 3.25ZM7.00004 0.625C9.91671 0.625 12.4075 2.43917 13.4167 5C12.4075 7.56083 9.91671 9.375 7.00004 9.375C4.08337 9.375 1.59254 7.56083 0.583374 5C1.59254 2.43917 4.08337 0.625 7.00004 0.625ZM1.85504 5C2.81754 6.96 4.80671 8.20833 7.00004 8.20833C9.19337 8.20833 11.1825 6.96 12.145 5C11.1825 3.04 9.19337 1.79167 7.00004 1.79167C4.80671 1.79167 2.81754 3.04 1.85504 5Z" fill="white"/>
</svg>
