<svg width="14" height="10" viewBox="0 0 14 10" fill="none" xmlns="http://www.w3.org/2000/svg">
<path d="M6.99998 3.25C7.96831 3.25 8.74998 4.03167 8.74998 5C8.74998 5.96833 7.96831 6.75 6.99998 6.75C6.03165 6.75 5.24998 5.96833 5.24998 5C5.24998 4.03167 6.03165 3.25 6.99998 3.25ZM6.99998 0.625C9.91665 0.625 12.4075 2.43917 13.4166 5C12.4075 7.56083 9.91665 9.375 6.99998 9.375C4.08331 9.375 1.59248 7.56083 0.583313 5C1.59248 2.43917 4.08331 0.625 6.99998 0.625ZM1.85498 5C2.81748 6.96 4.80665 8.20833 6.99998 8.20833C9.19331 8.20833 11.1825 6.96 12.145 5C11.1825 3.04 9.19331 1.79167 6.99998 1.79167C4.80665 1.79167 2.81748 3.04 1.85498 5Z" fill="#AFB5B8"/>
</svg>
