<?xml version="1.0" encoding="utf-8"?>
<!-- Generator: Adobe Illustrator 16.0.0, SVG Export Plug-In . SVG Version: 6.00 Build 0)  -->
<!DOCTYPE svg PUBLIC "-//W3C//DTD SVG 1.1 Tiny//EN" "http://www.w3.org/Graphics/SVG/1.1/DTD/svg11-tiny.dtd">
<svg version="1.1" baseProfile="tiny" id="Layer_1" xmlns="http://www.w3.org/2000/svg" xmlns:xlink="http://www.w3.org/1999/xlink"
	 x="0px" y="0px" width="24px" height="24px" viewBox="0 0 24 24" xml:space="preserve">
<g>
	<path d="M10.193,18.933c-0.756,0-1.371,0.591-1.371,1.317s0.615,1.317,1.371,1.317s1.371-0.591,1.371-1.317
		S10.949,18.933,10.193,18.933z M10.193,20.767c-0.314,0-0.57-0.231-0.57-0.517s0.256-0.517,0.57-0.517s0.57,0.231,0.57,0.517
		S10.508,20.767,10.193,20.767z"/>
	<path d="M10.193,15.267c-0.756,0-1.371,0.591-1.371,1.317c0,0.726,0.615,1.316,1.371,1.316s1.371-0.591,1.371-1.316
		C11.564,15.857,10.949,15.267,10.193,15.267z M10.193,17.1c-0.314,0-0.57-0.231-0.57-0.516c0-0.285,0.256-0.517,0.57-0.517
		s0.57,0.231,0.57,0.517C10.764,16.868,10.508,17.1,10.193,17.1z"/>
	<path d="M6.524,15.267c-0.766,0-1.39,0.591-1.39,1.317c0,0.726,0.624,1.316,1.39,1.316s1.39-0.591,1.39-1.316
		C7.914,15.857,7.29,15.267,6.524,15.267z M6.524,17.1c-0.319,0-0.589-0.236-0.589-0.516c0-0.285,0.264-0.517,0.589-0.517
		s0.589,0.231,0.589,0.517C7.113,16.863,6.844,17.1,6.524,17.1z"/>
	<path d="M6.524,18.933c-0.766,0-1.39,0.591-1.39,1.317s0.624,1.317,1.39,1.317s1.39-0.591,1.39-1.317S7.29,18.933,6.524,18.933z
		 M6.524,20.767c-0.319,0-0.589-0.236-0.589-0.517s0.27-0.517,0.589-0.517s0.589,0.236,0.589,0.517S6.844,20.767,6.524,20.767z"/>
	<path d="M8.35,3.234h7.416c0.221,0,0.4-0.18,0.4-0.4s-0.18-0.4-0.4-0.4H8.35c-0.221,0-0.4,0.18-0.4,0.4S8.129,3.234,8.35,3.234z"/>
	<path d="M17.5,4.266H6.537c-0.771,0-1.4,0.629-1.4,1.4v3.5c0,0.771,0.629,1.4,1.4,1.4H17.5c0.771,0,1.4-0.629,1.4-1.4v-3.5
		C18.9,4.895,18.271,4.266,17.5,4.266z M18.1,9.166c0,0.331-0.269,0.6-0.6,0.6H6.537c-0.331,0-0.6-0.269-0.6-0.6v-3.5
		c0-0.331,0.269-0.6,0.6-0.6H17.5c0.331,0,0.6,0.269,0.6,0.6V9.166z"/>
	<path d="M18.863,12.916c0-0.726-0.606-1.316-1.352-1.316s-1.352,0.591-1.352,1.316c0,0.727,0.606,1.317,1.352,1.317
		S18.863,13.643,18.863,12.916z M16.961,12.916c0-0.284,0.247-0.516,0.551-0.516s0.551,0.231,0.551,0.516
		c0,0.285-0.247,0.517-0.551,0.517S16.961,13.201,16.961,12.916z"/>
	<path d="M20.171,1.758l-0.588-0.63l-0.12-0.083C18.907,0.796,17.995,0.6,17.387,0.6H6.613c-0.608,0-1.521,0.196-2.076,0.445
		L3.91,1.639L3.829,1.758C3.581,2.314,3.387,3.226,3.387,3.834v16.333c0,0.608,0.194,1.52,0.442,2.076l0.589,0.629l0.119,0.083
		C5.093,23.204,6.005,23.4,6.613,23.4h10.773c0.608,0,1.521-0.196,2.076-0.445l0.626-0.593l0.082-0.119
		c0.248-0.557,0.442-1.468,0.442-2.076V3.834C20.613,3.226,20.419,2.314,20.171,1.758z M19.813,20.167
		c0,0.473-0.155,1.224-0.345,1.686l-0.398,0.4c-0.461,0.191-1.21,0.347-1.683,0.347H6.613c-0.473,0-1.222-0.155-1.683-0.347
		l-0.398-0.4c-0.189-0.462-0.345-1.213-0.345-1.686V3.834c0-0.473,0.155-1.224,0.345-1.686l0.398-0.401
		C5.392,1.556,6.141,1.4,6.613,1.4h10.773c0.473,0,1.222,0.155,1.683,0.347l0.398,0.401c0.189,0.462,0.345,1.213,0.345,1.686V20.167
		z"/>
	<path d="M17.53,15.267c-0.755,0-1.37,0.629-1.37,1.4v3.5c0,0.771,0.615,1.4,1.37,1.4s1.37-0.629,1.37-1.4v-3.5
		C18.9,15.896,18.285,15.267,17.53,15.267z M18.1,20.167c0,0.331-0.255,0.6-0.569,0.6s-0.569-0.269-0.569-0.6v-3.5
		c0-0.331,0.255-0.6,0.569-0.6s0.569,0.269,0.569,0.6V20.167z"/>
	<path d="M13.863,15.267c-0.745,0-1.352,0.591-1.352,1.317c0,0.726,0.606,1.316,1.352,1.316s1.352-0.591,1.352-1.316
		C15.215,15.857,14.608,15.267,13.863,15.267z M13.863,17.1c-0.304,0-0.551-0.231-0.551-0.516c0-0.285,0.247-0.517,0.551-0.517
		s0.551,0.231,0.551,0.517C14.414,16.868,14.167,17.1,13.863,17.1z"/>
	<path d="M13.863,11.6c-0.745,0-1.352,0.591-1.352,1.316c0,0.727,0.606,1.317,1.352,1.317s1.352-0.591,1.352-1.317
		C15.215,12.19,14.608,11.6,13.863,11.6z M13.863,13.433c-0.304,0-0.551-0.231-0.551-0.517c0-0.284,0.247-0.516,0.551-0.516
		s0.551,0.231,0.551,0.516C14.414,13.201,14.167,13.433,13.863,13.433z"/>
	<path d="M13.863,18.933c-0.745,0-1.352,0.591-1.352,1.317s0.606,1.317,1.352,1.317s1.352-0.591,1.352-1.317
		S14.608,18.933,13.863,18.933z M13.863,20.767c-0.304,0-0.551-0.231-0.551-0.517s0.247-0.517,0.551-0.517s0.551,0.231,0.551,0.517
		S14.167,20.767,13.863,20.767z"/>
	<path d="M10.193,11.6c-0.756,0-1.371,0.591-1.371,1.316c0,0.727,0.615,1.317,1.371,1.317s1.371-0.591,1.371-1.317
		C11.564,12.19,10.949,11.6,10.193,11.6z M10.193,13.433c-0.314,0-0.57-0.231-0.57-0.517c0-0.284,0.256-0.516,0.57-0.516
		s0.57,0.231,0.57,0.516C10.764,13.201,10.508,13.433,10.193,13.433z"/>
</g>
</svg>
