<svg width="16" height="19" viewBox="0 0 16 19" fill="none" xmlns="http://www.w3.org/2000/svg">
<path fill-rule="evenodd" clip-rule="evenodd" d="M5.10085 0.445312C5.39537 0.145345 5.81133 0 6.21818 0H9.32727C9.73413 0 10.1501 0.145345 10.4446 0.445312C10.7391 0.74528 10.8818 1.16895 10.8818 1.58333V2.375H15.5455V3.95833H14.7682V16.625C14.7682 17.9269 13.7146 19 12.4364 19H3.10909C1.83084 19 0.777273 17.9269 0.777273 16.625V3.95833H0V2.375H4.66364V1.58333C4.66364 1.16895 4.80634 0.74528 5.10085 0.445312ZM9.32727 1.58333H6.21818V2.375H9.32727V1.58333ZM2.33182 3.95833H13.2136V16.625C13.2136 17.0641 12.8675 17.4167 12.4364 17.4167H3.10909C2.67795 17.4167 2.33182 17.0641 2.33182 16.625V3.95833ZM3.88636 15.0417V6.33333H5.44091V15.0417H3.88636ZM6.99545 6.33333V15.0417H8.55V6.33333H6.99545ZM10.1045 15.0417V6.33333H11.6591V15.0417H10.1045Z" fill="#CBD3D6"/>
</svg>
