<svg width="25" height="20" viewBox="0 0 25 20" fill="none" xmlns="http://www.w3.org/2000/svg">
<path fill-rule="evenodd" clip-rule="evenodd" d="M0 1C0 0.449219 0.449219 0 1 0H3.21875C4.13672 0 4.93359 0.609375 5.15625 1.5L7.78125 12H20.25L22.6562 3H24.75L22.1562 12.5312C21.918 13.4023 21.1523 14 20.25 14H19H10H7.78125C6.86328 14 6.06641 13.3906 5.84375 12.5L3.21875 2H1C0.449219 2 0 1.55078 0 1ZM10 14C11.6445 14 13 15.3555 13 17C13 18.6445 11.6445 20 10 20C8.35547 20 7 18.6445 7 17C7 15.3555 8.35547 14 10 14ZM19 14C20.6445 14 22 15.3555 22 17C22 18.6445 20.6445 20 19 20C17.3555 20 16 18.6445 16 17C16 15.3555 17.3555 14 19 14ZM10 3H13V0H15V3H18V5H15V8H13V5H10V3ZM10 16C10.5625 16 11 16.4375 11 17C11 17.5625 10.5625 18 10 18C9.4375 18 9 17.5625 9 17C9 16.4375 9.4375 16 10 16ZM20 17C20 16.4375 19.5625 16 19 16C18.4375 16 18 16.4375 18 17C18 17.5625 18.4375 18 19 18C19.5625 18 20 17.5625 20 17Z" fill="white"/>
</svg>
