<svg width="20" height="20" viewBox="0 0 20 20" fill="none" xmlns="http://www.w3.org/2000/svg">
<path fill-rule="evenodd" clip-rule="evenodd" d="M0 10C0 4.48618 4.48618 0 10 0C15.5138 0 20 4.48618 20 10C20 15.5138 15.5138 20 10 20C4.48618 20 0 15.5138 0 10ZM18.4615 10C18.4615 5.31851 14.6815 1.53846 10 1.53846C5.31851 1.53846 1.53846 5.31851 1.53846 10C1.53846 14.6815 5.31851 18.4615 10 18.4615C14.6815 18.4615 18.4615 14.6815 18.4615 10ZM9.23077 5.38462V6.92308H10.7692V5.38462H9.23077ZM9.23077 14.6154V8.46154H10.7692V14.6154H9.23077Z" fill="#AFB5B8"/>
</svg>
