<svg width="20" height="20" viewBox="0 0 20 20" fill="none" xmlns="http://www.w3.org/2000/svg">
<path fill-rule="evenodd" clip-rule="evenodd" d="M12.2727 4.47443V0H18V18H0V6.90341L0.409091 6.6733L4.5 4.21875L5.72727 3.4517V5.93182L8.59091 4.21875L9.81818 3.4517V5.93182L12.2727 4.47443ZM16.3637 1.63656H13.9091V5.36951L13.5 5.59962L9.40911 8.05417L8.18184 8.82122V6.3411L5.3182 8.05417L4.09093 8.82122V6.3411L1.63639 7.79849V16.3638H16.3637V1.63656ZM3.27271 9.81798V11.4543H4.90907V9.81798H3.27271ZM6.54541 11.4543V9.81798H8.18177V11.4543H6.54541ZM9.81825 9.81798V11.4543H11.4546V9.81798H9.81825ZM13.091 11.4543V9.81798H14.7273V11.4543H13.091ZM3.27271 13.0908V14.7272H4.90907V13.0908H3.27271ZM6.54541 14.7272V13.0908H8.18177V14.7272H6.54541ZM9.81825 13.0908V14.7272H11.4546V13.0908H9.81825ZM13.091 14.7272V13.0908H14.7273V14.7272H13.091Z" fill="#03C871"/>
<path d="M14 20.0002C17.3137 20.0002 20 17.314 20 14.0002C20 10.6865 17.3137 8.00024 14 8.00024C10.6863 8.00024 7.99998 10.6865 7.99998 14.0002C7.99998 17.314 10.6863 20.0002 14 20.0002Z" fill="white"/>
<path fill-rule="evenodd" clip-rule="evenodd" d="M20 14.0002C20 10.6865 17.3137 8.00024 14 8.00024C10.6863 8.00024 7.99998 10.6865 7.99998 14.0002C7.99998 17.314 10.6863 20.0002 14 20.0002C17.3137 20.0002 20 17.314 20 14.0002ZM9.35487 14.0321C9.35487 11.4488 11.449 9.35465 14.0323 9.35465C16.6156 9.35465 18.7097 11.4488 18.7097 14.0321C18.7097 16.6153 16.6156 18.7095 14.0323 18.7095C11.449 18.7095 9.35487 16.6153 9.35487 14.0321Z" fill="#03C871"/>
<path d="M13.25 11.0002V13.2502H11V14.7502H13.25V17.0002H14.75V14.7502H17V13.2502H14.75V11.0002H13.25Z" fill="#03C871"/>
</svg>
