<svg width="236" height="26" viewBox="0 0 236 26" fill="none" xmlns="http://www.w3.org/2000/svg">
<path fill-rule="evenodd" clip-rule="evenodd" d="M0 0L16.7757 26L23 16.3531L18.8063 9.85305L16.7757 13.0001L8.38784 0H0ZM30 6L26 0H34L30 6ZM42.3196 6.5872L46.5 0L63 26H30L34.5141 18.8869H50.1253L42.3196 6.5872ZM29.4999 13.0001L37.7499 0H46L29.4999 26L13 0H21.2499L29.4999 13.0001Z" fill="#404750"/>
<path fill-rule="evenodd" clip-rule="evenodd" d="M37.7851 0L29.5702 13.0001L25.2149 6.10744H17L29.5702 26L46 0H37.7851Z" fill="white"/>
<mask id="mask0" mask-type="alpha" maskUnits="userSpaceOnUse" x="104" y="5" width="16" height="14">
<path fill-rule="evenodd" clip-rule="evenodd" d="M104.046 5.0957H119.047V18.9999H104.046V5.0957Z" fill="white"/>
</mask>
<g mask="url(#mask0)">
<path fill-rule="evenodd" clip-rule="evenodd" d="M117.938 7.21215C118.549 7.21215 119.047 6.73726 119.047 6.15393C119.047 5.57037 118.549 5.0957 117.938 5.0957H105.154C104.543 5.0957 104.046 5.57037 104.046 6.15393V17.9417C104.046 18.525 104.543 18.9999 105.154 18.9999H117.938C118.549 18.9999 119.047 18.525 119.047 17.9417C119.047 17.3581 118.549 16.8835 117.938 16.8835H106.263V13.2015H112.425C113.036 13.2015 113.533 12.7266 113.533 12.1433C113.533 11.5597 113.036 11.085 112.425 11.085H106.263V7.21215H117.938Z" fill="white"/>
</g>
<mask id="mask1" mask-type="alpha" maskUnits="userSpaceOnUse" x="71" y="5" width="26" height="14">
<path fill-rule="evenodd" clip-rule="evenodd" d="M71 5.09546H96.5184V19H71V5.09546Z" fill="white"/>
</mask>
<g mask="url(#mask1)">
<path fill-rule="evenodd" clip-rule="evenodd" d="M95.8395 5.17646C95.5679 5.06846 95.2689 5.06846 94.9973 5.17646C94.7258 5.28446 94.5144 5.48801 94.4017 5.74913L90.2231 15.4531L84.8626 5.66135C84.6727 5.31379 84.3012 5.09735 83.8891 5.09579C83.4827 5.09579 83.111 5.31001 82.9188 5.6549L77.4458 15.498L73.1115 5.73824C72.8735 5.20224 72.2265 4.95179 71.6676 5.1809C71.11 5.41024 70.8501 6.03335 71.0883 6.57001L76.3231 18.3573C76.488 18.7293 76.8662 18.9811 77.2894 18.9991C77.3031 18.9998 77.3162 19 77.3298 19C77.7341 19 78.1137 18.7838 78.305 18.4409L83.8815 8.41157L89.3688 18.4347C89.5594 18.7833 89.932 19 90.3411 19H90.3423L90.3924 18.9989C90.8168 18.9802 91.1959 18.7245 91.3588 18.3469L96.4346 6.5589C96.6666 6.02001 96.3995 5.39979 95.8395 5.17646Z" fill="white"/>
</g>
<path fill-rule="evenodd" clip-rule="evenodd" d="M191.874 16.869H180.253V6.06574C180.253 5.47816 179.747 5 179.126 5C178.505 5 178 5.47816 178 6.06574V17.9347C178 18.5221 178.505 19 179.126 19H191.874C192.495 19 193 18.5221 193 17.9347C193 17.3471 192.495 16.869 191.874 16.869Z" fill="white"/>
<mask id="mask2" mask-type="alpha" maskUnits="userSpaceOnUse" x="199" y="5" width="15" height="14">
<path fill-rule="evenodd" clip-rule="evenodd" d="M199.203 5.0957H213.885V18.9999H199.203V5.0957Z" fill="white"/>
</mask>
<g mask="url(#mask2)">
<path fill-rule="evenodd" clip-rule="evenodd" d="M212.776 7.21215C213.387 7.21215 213.885 6.73726 213.885 6.15393C213.885 5.57037 213.387 5.0957 212.776 5.0957H200.312C199.701 5.0957 199.203 5.57037 199.203 6.15393V17.9417C199.203 18.525 199.701 18.9999 200.312 18.9999H212.776C213.387 18.9999 213.885 18.525 213.885 17.9417C213.885 17.3581 213.387 16.8835 212.776 16.8835H201.42V13.1059H207.503C208.114 13.1059 208.611 12.6313 208.611 12.0479C208.611 11.4644 208.114 10.9895 207.503 10.9895H201.42V7.21215H212.776Z" fill="white"/>
</g>
<path fill-rule="evenodd" clip-rule="evenodd" d="M236 9.10027C236 5.89837 233.241 5.01812 231.776 5H222.108C221.497 5 221 5.47816 221 6.06551V17.9345C221 18.5218 221.497 19 222.108 19C222.719 19 223.217 18.5218 223.217 17.9345V7.13102L231.754 7.1308C232.093 7.13818 233.783 7.26818 233.783 9.10027C233.783 10.7865 232.679 11.0113 232.218 11.0295L227.381 11.0306C226.77 11.0306 226.273 11.5088 226.273 12.0963C226.273 12.6837 226.77 13.1616 227.381 13.1616H232.182C232.215 13.1616 232.25 13.1612 232.263 13.1605C232.383 13.1614 233.002 13.1847 233.387 13.5389C233.65 13.7807 233.783 14.1741 233.783 14.708V17.9345C233.783 18.5218 234.281 19 234.892 19C235.503 19 236 18.5218 236 17.9345V14.708C236 13.5782 235.642 12.672 234.935 12.0135C235.482 11.4492 236 10.5361 236 9.10027Z" fill="white"/>
<path fill-rule="evenodd" clip-rule="evenodd" d="M170 5C169.449 5 169 5.47816 169 6.06574V17.9347C169 18.5221 169.449 19 170 19C170.551 19 171 18.5221 171 17.9347V6.06574C171 5.47816 170.551 5 170 5Z" fill="white"/>
<path fill-rule="evenodd" clip-rule="evenodd" d="M159.735 11.8885C159.735 16.4286 156.239 16.835 155.769 16.869H149.265V7.13102H155.804C155.965 7.13147 159.735 7.19457 159.735 11.8885ZM155.806 5H148.133C147.508 5 147 5.47816 147 6.06574V17.9345C147 18.5218 147.508 19 148.133 19H155.806L155.861 18.9989C155.922 18.9962 162 18.6413 162 11.8885C162 5.07876 155.868 5 155.806 5Z" fill="white"/>
<mask id="mask3" mask-type="alpha" maskUnits="userSpaceOnUse" x="126" y="5" width="14" height="14">
<path fill-rule="evenodd" clip-rule="evenodd" d="M126.06 5.0957H139.946V19.0001H126.06V5.0957Z" fill="white"/>
</mask>
<g mask="url(#mask3)">
<path fill-rule="evenodd" clip-rule="evenodd" d="M135.862 11.0901C135.828 11.0866 135.795 11.0853 135.761 11.0853H132.228C131.635 11.0853 131.152 11.559 131.151 12.1419C131.15 12.7244 131.632 13.1999 132.224 13.2017L135.785 13.2133C136.292 13.2917 137.79 13.6497 137.79 15.119C137.79 16.6944 136.067 16.8657 135.744 16.8835H128.216V7.21237H135.761C136.1 7.21237 137.79 7.29859 137.79 9.00126C137.79 10.6357 136.381 11.0099 135.872 11.091L135.862 11.0901ZM139.946 9.00126C139.946 5.91193 137.208 5.0957 135.761 5.0957H127.138C126.544 5.0957 126.06 5.57059 126.06 6.15415V17.9419C126.06 18.5253 126.544 19.0001 127.138 19.0001H135.761C135.777 19.0001 135.792 18.9999 135.805 18.9993C137.237 18.9417 139.946 18.0566 139.946 15.119C139.946 13.6535 139.257 12.7199 138.53 12.1426C139.256 11.5379 139.945 10.5544 139.946 9.00126Z" fill="white"/>
</g>
</svg>
