<svg width="24" height="24" viewBox="0 0 24 24" fill="none" xmlns="http://www.w3.org/2000/svg">
    <path fill-rule="evenodd" clip-rule="evenodd" d="M12 0C5.38341 0 0 5.38341 0 12C0 18.6166 5.38341 24 12 24C18.6166 24 24 18.6166 24 12C24 5.38341 18.6166 0 12 0ZM12 1.84615C17.6178 1.84615 22.1538 6.38221 22.1538 12C22.1538 17.6178 17.6178 22.1538 12 22.1538C6.38221 22.1538 1.84615 17.6178 1.84615 12C1.84615 6.38221 6.38221 1.84615 12 1.84615ZM10.459 18V15.5829H13.8852V14.5029H10.459V13.3543H13.0328C15.541 13.3543 17 11.9829 17 9.65143C17 7.33714 15.541 6 13.0328 6H8.55738V11.64H7V13.3543H8.55738V14.5029H7V15.5829H8.55738V18H10.459ZM12.7541 11.64H10.459V7.69714H12.7541C14.3115 7.69714 15.0984 8.34857 15.0984 9.65143C15.0984 10.9714 14.3115 11.64 12.7541 11.64Z" fill="#03C871"/>
</svg>
