<svg width="24" height="24" viewBox="0 0 24 24" fill="none" xmlns="http://www.w3.org/2000/svg">
<path fill-rule="evenodd" clip-rule="evenodd" d="M12 0C5.38341 0 0 5.38341 0 12C0 18.6166 5.38341 24 12 24C18.6166 24 24 18.6166 24 12C24 5.38341 18.6166 0 12 0ZM12 1.84615C17.6178 1.84615 22.1538 6.38221 22.1538 12C22.1538 17.6178 17.6178 22.1538 12 22.1538C6.38221 22.1538 1.84615 17.6178 1.84615 12C1.84615 6.38221 6.38221 1.84615 12 1.84615ZM13.2104 10.7227H10.8026L10.1207 13.1176H9.12444L8.53722 8H6.68608L7.31176 13.1176H6V13.7479H7.38881L7.78641 17H10.6084L11.4922 13.7479H12.5171L13.3916 17H16.2136L16.6112 13.7479H18V13.1176H16.6882L17.3139 8H15.4887L14.8917 13.1176H13.8999L13.2104 10.7227ZM14.0814 13.7479L14.3754 14.7689H14.699L14.8181 13.7479H14.0814ZM12.3476 13.1176L12.1748 12.4748H11.8382L11.6635 13.1176H12.3476ZM9.9412 13.7479H9.19676L9.31392 14.7689H9.65049L9.9412 13.7479Z" fill="#03C871"/>
</svg>
