<?xml version="1.0"?>
<svg xmlns="http://www.w3.org/2000/svg" xmlns:xlink="http://www.w3.org/1999/xlink" xmlns:svgjs="http://svgjs.com/svgjs" version="1.1" width="512" height="512" x="0" y="0" viewBox="0 0 512 512" style="enable-background:new 0 0 512 512" xml:space="preserve" class=""><g transform="matrix(6.123233995736766e-17,1,-0.9999999999999999,6.123233995736765e-17,511.9479122161867,0.03323554992701361)">
  <g xmlns="http://www.w3.org/2000/svg">
    <path d="m470.4,72.3l-86.6-55.1c-18.5-11.8-43.1-6.3-54.9,12.2l-45.6,71.6c-11.7,18.4-6.3,43 12.1,54.8l26.4,16.9c-21.1,29.1-46.2,57.8-74.8,85.9-0.1,0.1-0.3,0.2-0.4,0.3-24.3,23.7-49.1,44.8-73.9,62.9l-16.9-26.4c-11.8-18.4-36.4-23.8-54.8-12.1l-71.6,45.6c-18.5,11.8-23.9,36.4-12.2,54.9l55.1,86.6c12.6,19.7 33.7,30.6 55.4,30.6 10,0 20.2-2.3 29.7-7.2 53.2-27.2 102.3-59.3 146.4-95.6 1.6-0.7 111.6-83.9 190-240.8 15.2-30.3 5.3-66.7-23.4-85.1zm-12.9,66.5c-45.5,89-144.7,197.1-145.3,197.7-50.1,47-108.4,87.7-173.4,121-11.2,5.7-25.2,1.7-32-9l-54.5-85.6 69.8-44.4 17,26.5c5.9,9.2 15.4,15.6 26.1,17.6 10.8,2 21.7-1 30.9-6.9 27.5-17.6 111-89 159.6-159.6 6.2-9 8.9-20.1 6.9-30.9-2-10.7-8.4-20.2-17.6-26.1l-26.4-17 44.4-69.8 85.6,54.6c10.6,6.7 14.5,20.8 8.9,31.9z" fill="#03c871" data-original="#000000" style=""/>
  </g>
</g></svg>
