<svg width="24" height="24" viewBox="0 0 24 24" fill="none" xmlns="http://www.w3.org/2000/svg">
<path fill-rule="evenodd" clip-rule="evenodd" d="M0 12C0 5.38341 5.38341 0 12 0C18.6166 0 24 5.38341 24 12C24 18.6166 18.6166 24 12 24C5.38341 24 0 18.6166 0 12ZM22.1538 12C22.1538 6.38221 17.6178 1.84615 12 1.84615C6.38221 1.84615 1.84615 6.38221 1.84615 12C1.84615 17.6178 6.38221 22.1538 12 22.1538C17.6178 22.1538 22.1538 17.6178 22.1538 12ZM12 4.61538C9.46154 4.61538 7.38462 6.69231 7.38462 9.23077C7.38462 10.6298 8.03726 11.8738 9.02885 12.7212C6.95192 13.7993 5.53846 15.97 5.53846 18.4615H7.38462C7.38462 15.9014 9.4399 13.8462 12 13.8462C14.5601 13.8462 16.6154 15.9014 16.6154 18.4615H18.4615C18.4615 15.97 17.0481 13.7993 14.9712 12.7212C15.9627 11.8738 16.6154 10.6298 16.6154 9.23077C16.6154 6.69231 14.5385 4.61538 12 4.61538ZM14.7692 9.23077C14.7692 7.69111 13.5397 6.46154 12 6.46154C10.4603 6.46154 9.23077 7.69111 9.23077 9.23077C9.23077 10.7704 10.4603 12 12 12C13.5397 12 14.7692 10.7704 14.7692 9.23077Z" fill="#03C871"/>
</svg>
