<svg width="17" height="18" viewBox="0 0 17 18" fill="none" xmlns="http://www.w3.org/2000/svg">
<path fill-rule="evenodd" clip-rule="evenodd" d="M14.5208 1.10204C14.5208 0.493622 14.9967 0 15.5833 0C16.1699 0 16.6458 0.493622 16.6458 1.10204C16.6458 1.71046 16.1699 2.20408 15.5833 2.20408C14.9967 2.20408 14.5208 1.71046 14.5208 1.10204ZM14.1667 3.30612H16.2917V8.44898H17V9.91837H14.1667V8.44898H14.875V4.77551H14.1667V3.30612ZM6.375 4.04082C4.03695 4.04082 2.125 6.02392 2.125 8.44898C2.125 9.87819 2.7863 11.1553 3.80729 11.9617C1.56885 12.9892 0 15.3052 0 18H1.41667C1.41667 15.1502 3.62744 12.8571 6.375 12.8571C9.12256 12.8571 11.3333 15.1502 11.3333 18H12.75C12.75 15.3052 11.1812 12.9892 8.94271 11.9617C9.9637 11.1553 10.625 9.87819 10.625 8.44898C10.625 6.02392 8.71305 4.04082 6.375 4.04082ZM9.20833 8.44898C9.20833 6.81601 7.94938 5.5102 6.375 5.5102C4.80062 5.5102 3.54167 6.81601 3.54167 8.44898C3.54167 10.082 4.80062 11.3878 6.375 11.3878C7.94938 11.3878 9.20833 10.082 9.20833 8.44898Z" fill="#03C871"/>
</svg>
