<?xml version="1.0" encoding="utf-8"?>
<!-- Generator: Adobe Illustrator 24.0.2, SVG Export Plug-In . SVG Version: 6.00 Build 0)  -->
<svg version="1.1" id="Слой_1" xmlns="http://www.w3.org/2000/svg" xmlns:xlink="http://www.w3.org/1999/xlink" x="0px" y="0px"
	 viewBox="0 0 11144.9 9083.2" style="enable-background:new 0 0 11144.9 9083.2;" xml:space="preserve">
<g>
	<path d="M4725,9082.4c-11.9,0-23.8,0-35.7,0c-2.8-3.2-5.1-7.3-8.6-9.4c-10.2-6-20.8-11.3-31.5-16.6
		c-353.5-175.8-707.1-351.4-1060.6-527.2C2650.3,8062.7,1712,7596.2,773.8,7129.8C547.8,7017.4,321.9,6905,96,6792.6
		c-13.3-6.6-26.8-12.8-39.6-20.4c-19.9-11.8-33.2-28.7-39.8-51.5c-6.3-21.7-8.2-43.5-8.2-65.9c0.2-252.5,0.2-504.9-0.2-757.4
		c0-19.7,3.7-38.2,9.2-56.7c6.3-20.8,18.8-36.9,37.7-47.7c10.3-5.9,21-11.1,31.7-16.3c100.3-48.3,200.7-96.4,300.9-144.8
		c9.2-4.5,18-10,26.7-15.5c3.1-2,3.1-5.7,0.5-7.2c-11.5-6.7-22.9-13.7-34.7-19.6c-97-48.3-194.1-96.4-291.1-144.6
		c-13.3-6.6-26.6-13.3-39-21.4c-16.7-10.9-27.7-26.5-33.1-45.9c-5.6-20.1-8.8-40.3-8.8-61.4c0.3-254,0.3-507.9-0.1-761.9
		c0-19.7,3.9-38.2,9.2-56.7c5.6-19.4,17.3-34.5,34-45.3c9.9-6.4,20.8-11.3,31.5-16.5c94.8-46.1,189.6-92,284.4-138
		c10.7-5.2,21.4-10.3,31.7-16.1c3-1.7,4.6-5.7,7.8-10c-14.8-7.6-27.8-14.5-41.1-21.1c-93-46.3-186-92.6-279-138.9
		c-10.6-5.3-21.4-10.3-31.5-16.5c-19.8-12.1-32.8-29.2-38.9-52.1c-5-18.8-7.9-37.5-7.9-57c0.2-255.4,0.2-510.9-0.2-766.3
		c0-18.3,3.8-35.2,8.7-52.3c6.5-22.6,20.1-39.5,40.5-50.9c13-7.2,26.3-13.7,39.6-20.3c340.9-167.8,681.8-335.5,1022.7-503.4
		c681.7-335.7,1363.4-671.4,2045.1-1007.2c520.6-256.4,1041.1-513,1561.7-769.4c523.3-257.7,1046.6-515.3,1569.8-773
		c27.8-13.7,55.1-28.5,84.4-39c1.1-0.4,1.8-2.3,2.6-3.5c8.9,0,17.8,0,26.7,0c1,1.1,1.8,2.7,3.1,3.2c23.9,8,46.4,19.2,69,30.2
		C7022.9,296.9,7563.6,559.4,8104.2,822c989.1,480.6,1978.2,961.3,2967.3,1442c10.7,5.2,21.4,10.3,32,15.7
		c14.8,7.6,27.6,17.2,34.7,33.2c1,2.3,4.4,3.4,6.7,5.1c0,303,0,606,0,909c-2.3,1.7-5.7,3-6.6,5.2c-6.8,15.9-19.7,25.6-34.3,33.4
		c-9.1,4.9-18.4,9.6-27.7,14.1c-90.3,44.4-180.6,88.8-270.9,133.2c-14.6,7.2-29,14.6-43.1,21.8c0.9,4,0.6,8.2,2.3,9.2
		c8.7,5.5,17.6,10.7,26.8,15.2c98.4,48,196.7,96.2,295.4,143.6c24.7,11.9,46,26.5,58,51.9c0,300,0,600.1,0,900.1
		c-22.6,33.5-23.7,34.6-58.3,51.8c-6.6,3.3-13.3,6.5-20,9.7c-95.6,47.1-191.3,94.1-286.9,141.2c-8,3.9-16,7.7-23.8,12.1
		c-2,1.2-4,4.5-3.9,6.7c0.1,2.5,1.8,6.2,4,7.3c19.7,10.2,39.6,20.1,59.5,29.9c90.3,44.5,180.5,89.2,270.9,133.4
		c21.4,10.5,41.8,21.8,54.2,43.3c0.5,0.9,2.7,0.8,4.2,1.2c0,303,0,606,0,909c-25.5,32.7-25.5,32.7-64.1,51.8
		c-2.7,1.3-5.5,2.4-8.1,3.7c-543.4,267.4-1086.8,534.7-1630.2,802.2c-552.7,272-1105.3,544.2-1658,816.2
		c-640.6,315.3-1281.3,630.4-1921.9,945.6c-362.3,178.2-724.5,356.5-1086.7,534.8C4758.6,9063.5,4741.9,9073.2,4725,9082.4z
		 M4101,8583.1c4.5,9.8,4.5,9.8,17.8,8.9c1.2,2.5,1.7,6.2,3.7,7.3c10.2,6,20.6,11.7,31.3,17c142.1,70.7,284.2,141.2,426.3,211.8
		c8,4,15.9,8,24,11.7c12.2,5.6,19.7,0.7,20.1-13.2c0.3-11.9,0.4-23.7,0.4-35.6c0-175.1,0.2-350.2-0.1-525.3
		c-0.1-60.2,7.7-48.1-47.8-75.7c-555-276.1-1110.1-552-1665.2-828c-130.1-64.7-260.2-129.6-390.4-194.1c-10.4-5.2-20.2-13-33-11.9
		c-3.4-8.4-10.4-9.1-18.1-8.7c-1.7-2.3-3-5.4-5.3-6.7c-11.7-6.4-23.6-12.5-35.5-18.4c-551.3-274.1-1102.5-548.1-1653.8-822.1
		c-10.6-5.3-21.1-10.9-32-15.5c-3.8-1.6-8.6-0.5-13-0.7c-2.4-10.8-10.2-9.9-18.3-8.5c-1.8-11.5-10.1-9.7-18-8.8
		c-1.6-11.6-9.9-9.7-17.8-9c-4.3-9.7-4.3-9.7-17.6-9.1c-1.2-2.5-1.8-6.2-3.8-7.3c-13-7.2-26.1-14.1-39.4-20.7
		c-126.2-62.8-252.4-125.5-378.7-188.2c-10.6-5.3-21.2-10.7-31.9-15.7c-11-5.1-17.9-1.4-18.2,9.5c-0.3,11.9-0.4,23.7-0.4,35.6
		c0,176.7,0,353.4,0,530c0,10.4-0.3,20.8,0.2,31.2c0.4,7.2,2,14.4,3,21.8c15.5,7.9,30,15.3,44.6,22.6
		c418.5,208.1,837,416.1,1255.6,624.2c752,373.9,1504,747.8,2256,1121.7c99.6,49.5,199.2,99.3,298.9,148.6
		c11.8,5.8,22.8,14.4,37.1,14C4086,8584,4092.7,8585.7,4101,8583.1z M1603.8,5375.4c-1.8-11.4-10-9.8-18-8.8
		c-4.2-9.5-4.2-9.5-17.8-9c-4.3-9.7-4.3-9.7-17.6-9.1c-1.3-2.5-1.9-6.1-3.9-7.3c-10.2-6-20.7-11.6-31.4-16.8
		c-222-110.4-443.9-220.7-666-331c-38.5-19.1-77.3-37.9-115.9-56.9c-6.7-3.3-13-7.2-20.8-6.8c-3.9-7.4-10.8-9-18.4-8.9
		c-3.6-7.7-10.4-8.9-17.8-9c-5.7-9.9-16.6-12-25.6-16.6c-70.2-35.5-140.7-70.3-211.2-105.3c-73.1-36.3-146.2-72.7-219.4-108.9
		c-7.9-3.9-16.4-6.7-24.8-9.1c-1.8-0.5-6.5,2.4-6.7,4.2c-1.3,10.2-2.2,20.6-2.3,30.9c-0.2,83.2-0.1,166.3-0.1,249.5
		c0,99.5-0.1,199,0.1,298.5c0,14.7-2.2,29.7,3.9,45.7c13.4,6.8,27.9,14.3,42.5,21.6c704.4,350.3,1408.9,700.5,2113.3,1050.7
		c705.7,350.9,1411.5,701.7,2117.2,1052.6c43.9,21.8,87.7,43.7,131.6,65.3c6.6,3.2,13.7,5.4,20.9,7.1c1.8,0.4,6.2-2.9,6.4-4.8
		c1.3-11.7,2.3-23.6,2.3-35.3c0.1-181.2,0.1-362.4,0.1-543.6c0-10.4,0-20.8-0.4-31.2c-0.3-9.8-5.3-16.5-14.1-20.8
		c-12-5.8-23.9-12-35.8-18c-281.8-140-563.7-279.9-845.5-420c-671.3-333.6-1342.5-667.2-2013.7-1000.8
		c-25.3-12.5-50.4-25.3-75.9-37.4c-5-2.4-11.4-1.9-17.1-2.8C1619.5,5373.3,1611.9,5373.7,1603.8,5375.4z M703.6,3592.9
		c-4.4-6.5-10.8-9-18.4-9c-4.7-3.3-9.1-7.3-14.2-9.8c-152.7-76.3-305.4-152.6-458.1-228.7c-4-2-8.2-3.4-12.4-5
		c-7.8-3.2-13.5,1.2-13.8,10.8c-0.2,7.4-0.4,14.8-0.4,22.3c0,185.6,0,371.3,0,556.9c0,8.9,0.2,17.8,0.6,26.7
		c0.3,6.3,3.7,11.5,9,14.4c13,7.2,26.1,14,39.4,20.7c26.6,13.3,53.3,26.2,79.9,39.4c26.6,13.2,53.1,26.6,79.7,39.8
		c26.6,13.2,53.3,26.2,79.9,39.4c26.6,13.2,53,26.7,79.7,39.7c26.6,13,52.5,28.7,80.5,37.6c29.2,9.3,51.7,28.8,78.2,41.9
		c344.6,170.4,688.7,341.8,1032.9,512.9c627.3,311.9,1254.7,623.7,1882,935.6c319,158.6,638.1,317,956.9,475.9
		c40.6,20.2,39.7,15.5,39.7-25.9c-0.1-184.2,0-368.3-0.1-552.5c0-11.8-0.8-23.6-1.1-34.5c-12.5-13.3-28.4-18.4-42.9-25.6
		c-531.7-264.3-1063.3-528.5-1595-792.7c-615.4-305.8-1230.9-611.6-1846.3-917.3c-131.6-65.4-263.2-130.8-394.9-196
		C731.2,3603.4,718.9,3594.5,703.6,3592.9z M6396.9,187.7c-16,7.7-30.8,14.6-45.4,21.8C5969.4,397.8,5587.2,586.2,5205,774.4
		c-607.2,299.1-1214.5,598-1821.8,897.1c-452.8,223-905.5,446.1-1358.2,669.1c-466.1,229.6-932.1,459.2-1398.2,688.7
		c-95.9,47.2-191.7,94.4-287.6,141.7c-9.3,4.6-18.7,9.1-27.7,14.2c-2.2,1.3-4.2,4.5-4.6,7c-0.3,2.2,1.4,5.8,3.3,6.8
		c11.7,6.5,23.5,12.6,35.5,18.6c251.3,124.8,502.5,249.6,753.8,374.5c735.1,365.3,1470.3,730.6,2205.4,1095.8
		c454.6,225.9,909.3,451.8,1364,677.6c10.6,5.3,21.3,10.5,32,15.6c7.1,3.4,14.3,3.1,21.4-0.4c13.4-6.5,26.7-12.9,40-19.5
		c191.8-94.3,383.7-188.6,575.5-282.9c905.8-445.5,1811.5-891,2717.3-1336.5c811.2-399,1622.3-798.1,2433.5-1197.1
		c111.9-55,223.8-109.9,335.6-165.1c11.8-5.8,25.2-9.5,34-20.3c-0.3-1.3-0.4-2.6-1-3.6c-0.7-1.2-1.7-2.6-2.9-3.3
		C10834.5,2340.7,6431,201.9,6396.9,187.7z M4797.3,7184.1c0,11.9,0,23.8,0,35.6c0,83.2-0.1,166.3,0.1,249.5
		c0,8.8,0.9,17.7,2.3,26.4c0.3,1.6,5.3,4.3,6.9,3.6c19.1-8.1,38.2-16.2,56.8-25.3c333-163.7,665.8-327.6,998.8-491.3
		c486.1-239.1,972.2-478,1458.3-717.1c470.1-231.2,940.2-462.5,1410.3-693.8c468.8-230.6,937.5-461.2,1406.3-691.7
		c265-130.3,530.1-260.6,795.1-390.9c12-5.9,23.9-12,35.6-18.3c5.4-2.9,9-7.9,9.6-14.1c0.8-7.4,1-14.8,1-22.2
		c0.1-188.6,0.1-377.2,0-565.8c0-8.8-1.1-17.7-1.8-26.5c-0.3-3.3-7-7.4-10-6.1c-13.5,6.2-27,12.3-40.3,18.8
		c-242.4,119.2-484.7,238.5-727.1,357.7c-556.7,273.8-1113.3,547.6-1670,821.5c-536.7,264-1073.4,528-1610.1,791.9
		c-558,274.4-1116,548.8-1674.1,823.2c-134.5,66.1-269.3,131.8-403.5,198.5c-50.1,24.9-44.1,13.4-44.3,69
		C4797.1,7005.9,4797.3,7095,4797.3,7184.1z M4798.1,5541.2c-0.3,13.5-0.8,28.2-0.8,43c-0.1,178.2,0,356.5,0,534.7
		c0,11.9,0.2,23.8,0.5,35.6c0.1,2.9,0.4,6.3,2,8.5c1.5,2.1,5.1,4.3,7.3,3.9c17.8-3.3,32.8-13.4,48.7-21.2
		c225.2-110.6,450.2-221.5,675.3-332.2c619.4-304.6,1238.8-609,1858.2-913.6c604.7-297.4,1209.4-594.8,1814.1-892.3
		c434.2-213.6,868.4-427.1,1302.6-640.7c143.8-70.8,287.7-141.4,431.5-212.4c13.1-6.5,27.6-10.9,38.7-22.8
		c4.4-15.5,2.5-31.9,2.5-48.1c0.1-175.3,0.1-350.5,0.1-525.8c0-13.4-0.3-26.7-0.8-40.1c-0.1-2.8-0.9-6.1-2.6-8.3
		c-1.5-2-4.9-4.3-7.1-3.9c-5.7,1-11.4,2.8-16.6,5.3c-50.7,24.7-101.3,49.6-152,74.5c-580.7,285.6-1161.5,571.1-1742.2,856.7
		c-652.7,321-1305.3,642-1957.9,963C6482.7,4708.5,5866,5011.7,5249.3,5315c-135.9,66.8-271.6,133.8-407.4,200.8
		C4827.4,5523,4811.8,5528.4,4798.1,5541.2z M4799.8,8841c8.1,4,15,1.4,21.7-2c55.9-27.6,111.8-55.3,167.7-82.8
		c817.8-402.4,1635.6-804.7,2453.4-1207.1c646-317.8,1292-635.6,1937.9-953.5c395.6-194.6,791.1-389.3,1186.7-584
		c123.9-61,247.7-121.9,371.6-182.9c10.6-5.2,21.2-10.7,31.2-16.9c3.3-2.1,6.3-6.6,7.1-10.5c1.4-7.2,1.4-14.8,1.4-22.2
		c0.1-190.1,0.1-380.2,0-570.4c0-7.3-1.2-14.7-2-22c-0.3-3.1-7.3-7.3-10.1-6c-20.2,9.4-40.4,18.6-60.4,28.5
		c-571.4,281-1142.9,562.1-1714.3,843.2c-583.4,287-1166.8,574-1750.2,860.9c-576.8,283.6-1153.6,567.2-1730.3,850.8
		c-290.4,142.8-580.7,285.7-871.1,428.5c-13.3,6.5-26.3,13.6-38.2,19.8c-1.6,4.5-3.5,7.3-3.5,10c-0.4,202-0.6,404-0.8,606
		C4797.5,8832.8,4799,8837.1,4799.8,8841z M10858.9,5032.5c-7.4-9.9-19.2-13.1-29.5-18.3c-85.1-42.2-170.3-84.2-255.5-126.3
		c-5.3-2.6-10.9-4.8-16-7.7c-10.2-5.7-19.6-4.4-29.5,1c-10.4,5.7-21.4,10.4-32,15.6c-191.8,94.3-383.7,188.6-575.5,282.9
		c-924.4,454.7-1848.9,909.3-2773.3,1364C6360.3,6931,5573.2,7318.3,4786,7705.6c-12,5.9-23.9,12-36.1,17.5
		c-25.8,11.6-51.8,11.6-77.7,0.3c-8.2-3.5-15.9-8-23.9-12c-186.1-92.5-372.3-184.9-558.4-277.4
		c-824.1-409.7-1648.2-819.5-2472.3-1229.2c-316.4-157.3-632.7-314.6-949.1-471.8c-12-5.9-23.8-12.3-36.2-17.2
		c-5-2-11.8-1.5-17.2-0.1c-7.1,1.9-13.6,5.8-20.3,9c-86.9,41.8-173.9,83.7-260.8,125.6c-6.7,3.2-13.6,6.2-19.8,10.1
		c-3.5,2.2-5.9,6.1-9,9.4c15.6,12.9,34,19.6,51.1,28.1c774.9,385.3,1549.9,770.4,2324.9,1155.6c662,329,1323.9,658.2,1985.9,987.3
		c49.6,24.7,38.5,24.4,85.6,1.2c464.9-228.6,929.7-457.3,1394.6-686c724.6-356.4,1449.3-712.7,2173.9-1069.1
		c819.2-402.8,1638.4-805.7,2457.7-1208.5c22.6-11.1,45.2-22.5,67.8-33.6C10852.4,5042.2,10856.8,5038.7,10858.9,5032.5z
		 M301.9,4524.9c5.5,4,8.9,7,12.7,9.1c10.5,5.6,21.2,10.7,31.8,16c547.7,272.1,1095.3,544.2,1643,816.3
		c668.6,332.2,1337.1,664.5,2005.7,996.7c226,112.3,451.9,224.6,678,336.7c13,6.5,25.3,15.7,42.9,16c13.2-6.4,27.9-13.4,42.5-20.6
		c325-159.8,649.9-319.7,974.9-479.5c575.4-283,1150.7-566,1726.1-849c578-284.3,1156.1-568.5,1734.1-852.8
		c387.6-190.6,775.1-381.3,1162.7-572c154.5-76,309.1-151.8,463.6-227.8c11.9-5.9,23.5-12.6,34.8-19.4c1.6-1,1.3-5.2,2.3-9.6
		c-93.9-46.7-188.8-92.4-283.6-138.2c-6.6-3.2-13.5-5.7-20.6-8.6c-11.3,5.3-22.1,10.1-32.7,15.3
		c-145.2,71.4-290.3,142.9-435.5,214.3c-831.1,408.6-1662.3,817.2-2493.4,1225.9c-691.2,340-1382.3,680.1-2073.5,1020.2
		c-245.1,120.6-490.2,240.9-735.3,361.3c-13.3,6.5-26.6,13.1-40.3,18.8c-20.1,8.4-40.6,8.4-60.8,0.6c-12.4-4.8-24.5-10.7-36.4-16.6
		c-207.3-103-414.6-206.2-622-309.2c-735-365.4-1470-730.7-2204.9-1096c-386.8-192.3-773.5-384.7-1160.2-577
		c-12-5.9-23.9-11.9-36.1-17.5c-7.1-3.3-14.5-2.7-21.6,0.3c-2.7,1.2-5.3,2.6-8,3.9c-89.6,43.2-179.1,86.4-268.6,129.7
		C317,4515.2,311.1,4519.4,301.9,4524.9z"/>
	<path d="M2468.1,7149.9c3.2,8.1,10.3,8.9,17.6,9.2c3.4,7.3,10.9,9.7,17,13.6c21.2,13.7,43.2,26.2,63.6,41
		c92.6,67.7,145.1,159.3,159.1,272.7c6.5,52.7-3.1,103.6-23.8,152.3c-4.6,10.9-10.9,21.1-17.2,31.1c-28,44.3-69.4,68.1-120.4,75.5
		c-32.6,4.8-65.2,3.2-97.5-3.7c-42.3-9-83-22.7-122.1-41.2c-53.9-25.4-104.7-56-152.6-91.5c-37.5-27.8-68.1-61.9-92.5-101.5
		c-32.6-53.2-48.9-111.2-48.4-173.5c0.3-39.1,9.4-76.6,25.5-112.1c26.2-57.7,70.4-93.6,132.1-109.7c52.1-13.6,103.1-8.7,154.1,3.7
		c27.4,6.7,54.2,15.6,80.1,26.8C2450.9,7146.2,2458.8,7150.3,2468.1,7149.9z"/>
	<path d="M1835.6,7072.6c0.6,40.4-8,76.4-20.5,111.5c-7.5,21-19,40.3-33.3,57.6c-19.3,23.5-43.1,40.7-72.1,50.3
		c-29.9,9.9-60.5,14.4-92.1,11.6c-46.3-4.2-90.5-16.2-133.3-33.6c-66.4-27-127.7-63.2-184.8-106.2c-38.5-29-69.1-65-93.9-106.1
		c-27.4-45.4-41.2-95.3-45.3-147.7c-3.8-48.3,6.9-94.8,27.8-138.2c26.8-55.6,71.7-88.9,131.4-104.3c47.6-12.3,94.4-8.8,141.1,2
		c91.4,21,172.9,62.9,243.7,123.9c64.9,55.9,106.5,126.8,123.3,211.5C1832.3,7028.1,1836.8,7051.4,1835.6,7072.6z"/>
	<path d="M3160.3,7549.2c50.9,0.2,92.6,10.7,133.6,24.2c67,22.1,127.9,56,182.3,100.5c72.8,59.5,117.4,136.1,135.5,228.9
		c10.5,54.1,6,106.3-10.1,158.2c-5.3,17.1-13.1,33.1-22.3,48.4c-29.8,49.2-74.2,75.6-130.7,82.2c-43.5,5.1-86-1-127.6-13.6
		c-18.4-5.6-36.7-11.8-54.6-18.9c-66.6-26.6-127.6-63.1-185-106c-36.1-27-65.5-60.2-89.4-98.3c-33.2-52.9-49.4-110.8-50.1-173
		c-0.4-37.7,8-73.9,22.6-108.3c26-61.4,71.3-100.7,137.1-116.1C3123.4,7552.2,3145.2,7548.4,3160.3,7549.2z"/>
	<path d="M712.9,6274.6c2.5,9.8,9.4,10.9,17.8,9c1,2.6,1.3,6.2,3.2,7.6c13.3,9.4,27,18.3,40.5,27.4c46.2,31.2,83.9,70.5,113.2,117.8
		c38.4,62,57.5,129.6,56.8,202.6c-0.3,36-8.8,70.5-21.4,103.9c-7.4,19.5-18.1,37.3-31.2,53.6c-19,23.7-42.4,41.3-71.3,51
		c-35.6,11.9-71.5,17.1-109.3,10.9c-47.1-7.8-92.5-20.7-136-40c-55.7-24.7-108.2-55.3-157.2-91.6c-16.6-12.3-32.4-26-47-40.6
		c-59-58.6-93.1-129.7-101.1-212.3c-5.4-55.9,6.4-109.4,33.8-158.4c25-44.7,62.8-74.3,112.4-88c36-9.9,72.2-14.9,109.8-9.3
		c36.8,5.5,72.8,13.5,107.7,26.2c8.4,3,16.6,6.4,25.8,3.6c1.8,11.3,10.2,9.3,17.8,8.9c2.6,9.8,10.2,9.3,17.8,8.9
		C697.8,6275,705.1,6275.4,712.9,6274.6z"/>
	<path d="M4118.5,8592.5c-2.2-10.6-9.8-10.3-17.9-8.8c-1.2-10.4-9.2-10-16.7-10.4c-2.7-7.9-10.5-10-16.5-13.9
		c-26.2-16.9-53-32.8-78.8-50.3c-43.5-29.6-79.3-67.1-106.8-112c-34.2-55.9-51.1-116.6-48.5-182.2c1.4-35.9,9.8-70.5,24.7-103.2
		c26.2-57.6,69.9-93.9,131.8-109.7c39.8-10.1,79.7-11.1,119.3-4.1c100.2,17.7,189,61.4,266.1,126.9
		c70.3,59.7,112.3,136.4,128.5,227.9c9.1,51.2,4.8,100.5-10.5,149.3c-4.8,15.5-11.5,30.6-19.3,44.8c-31.2,56.8-81,84.7-144.5,90.2
		c-39,3.4-77.1-2.9-114.2-14.3c-25.5-7.9-50.3-17.6-75.3-26.8C4132.9,8593.2,4126.2,8590.5,4118.5,8592.5z"/>
	<path d="M2941.8,5110.6c-1.1-33.7,6.2-67.1,17.4-99.5c28.3-81.3,87-125.1,171.2-135.5c44.7-5.6,89-0.6,132.4,11.6
		c81.3,22.7,154.8,60.9,219.1,115.3c70.5,59.6,113.5,135.7,130.2,227.1c9.7,52.7,5.2,103.3-10.3,153.8
		c-6.6,21.5-16.4,41.4-29.4,59.7c-24,34-55.7,56.4-96.6,66.9c-35.4,9.1-70.4,9.7-105.9,3.2c-50-9.1-97.5-25.5-143.2-47.6
		c-48.3-23.4-93.9-51.1-137.4-82.3c-39.1-28-71.4-62.5-97.2-103.2C2960.9,5230.3,2942.1,5168.2,2941.8,5110.6z"/>
	<path d="M2276.7,4429.4c53.2,0.1,100.5,13.4,146.4,30.6c57.3,21.5,110.3,51.7,158,90.2c74.4,60,121,136.9,139.3,231.5
		c10.5,54.1,6.4,106.2-9.7,158.2c-5.3,17.1-12.8,33.2-22.1,48.5c-31.6,52.4-79.2,78.6-139.2,83.9c-40.5,3.6-79.9-3.2-118.7-14.3
		c-31.5-9-61.9-20.7-91.4-34.7c-47.1-22.4-91.5-49.2-134.1-79.2c-43.1-30.3-78.9-67.6-106.3-112.6c-33.2-54.6-49.9-114.1-48-178.1
		c1.1-37.4,9.9-73.6,25.7-107.6c25.9-55.8,68.6-91.9,128.6-107.5C2230,4431.8,2254.8,4428.7,2276.7,4429.4z"/>
	<path d="M1835.6,4394.2c0.8,42-7.3,78.2-20,113.2c-5.5,15.2-13.8,29.6-22.5,43.3c-27.8,44.5-69.2,68.1-120.3,75.6
		c-34.1,5-68.1,2.7-101.8-4.6c-42.3-9.2-82.8-23.5-121.8-42c-48.4-23-94.1-50.5-137.7-81.8c-40.3-28.9-73.4-64.5-100.4-106.2
		c-30.5-47.3-46.2-99.6-50.8-155c-4.1-49.8,6.6-97.7,28.8-142.4c26.7-53.6,70.4-86.3,128.5-101.4c50.5-13.1,100.2-9.1,149.8,2.9
		c88.1,21.4,166.8,62.5,235.4,121.1c66.4,56.8,108.6,128.8,125.2,215.2C1832.3,4354.3,1836.8,4376.1,1835.6,4394.2z"/>
	<path d="M686.4,3582.9c-0.1,4.3,1.8,7.7,6,8.5c3.8,0.7,7.9,0.3,11.8,0.5c0.9,2.6,1.1,6.3,3,7.5c19.9,12.9,40.2,25.2,60.1,38.2
		c43.9,28.8,81.1,64.6,110.8,108.1c44.7,65.7,67,138.3,66.3,217.8c-0.3,36-8.7,70.6-21.8,103.9c-5.4,13.7-13,26.7-20.9,39.1
		c-27.2,42.6-67,66.2-116.3,74.2c-35.6,5.8-70.9,3.4-106.1-4.3c-42.2-9.2-82.7-23.6-121.6-42.1c-48.3-23-94-50.6-137.5-81.7
		c-35.3-25.2-65.3-55.7-90.6-91.1c-36.4-50.9-55.5-108.2-60.1-169.8c-3.8-51.2,7.4-100.5,31-146.2c23.5-45.6,60.3-76.6,109.2-92.4
		c43-13.9,86.8-17.4,131.7-9.2c41,7.5,80.8,18.8,119.4,34.5C669.2,3581.6,677.3,3584.3,686.4,3582.9z"/>
	<path d="M4051.9,5316.9c61.1,2.1,111.5,14.3,160.1,33.7c52.7,21.1,101.8,48.9,146.4,83.9c90.3,70.7,139.9,163.9,149.9,277.8
		c4.4,49.8-5.8,97.9-26.4,143.1c-19.7,43.4-50.6,76.8-96.9,93c-37,12.9-74.8,17.4-114,10.6c-54.5-9.5-106.5-26.4-156.1-50.7
		c-46.8-22.9-91.1-50.1-133.4-80.4c-40.3-28.9-73.9-64.3-99.9-106.7c-33.4-54.5-49.8-113.8-48.5-177.9c0.7-33.1,8-65,19.7-95.5
		c26.6-69.4,77.4-111,150.1-125.2C4021.8,5318.8,4041.2,5318.1,4051.9,5316.9z"/>
	<path d="M2050.4,6005.2c0.4-49.5,8.9-88.5,25.4-125.5c27.4-61.4,75.2-97.3,140.3-112.5c44.6-10.4,88.7-7.2,132.5,2.5
		c90.1,20,170.5,60.8,241.1,119.7c69.6,58.1,112.5,132.6,130.5,222.1c11.5,57.1,7.3,112.4-11.6,166.7
		c-15.5,44.7-41.4,82.4-84.8,104.8c-37.9,19.6-78.5,26.6-121,21.5c-52-6.3-101.7-21.1-149.3-42.7c-55.6-25.2-107.9-56.3-157.1-92.5
		c-38.8-28.5-70.7-63.3-96.2-104.1C2067.9,6113.6,2052.8,6056.9,2050.4,6005.2z"/>
	<path d="M1604.6,5374.4c2,10,9.3,10.5,17.3,9.6c0.3,4.9,3.5,7.8,7.3,10.3c14.8,9.9,29.9,19.5,44.4,29.8
		c51.7,37,91.8,84,121.1,140.3c22.3,42.8,34.1,88.6,39.7,136.1c5.6,48.1-2.8,94.8-19.5,139.9c-7.2,19.6-17.7,37.6-30.7,54
		c-19.8,25.1-44.4,43.7-75,53.5c-34.3,10.9-68.9,16-105.3,10.3c-50.3-7.9-98.4-22.2-144.6-43.3c-54.2-24.8-105.1-55.3-153.2-90.4
		c-37.6-27.5-68.6-61.1-94.1-100.1c-30.7-47.1-46.7-99.4-51.5-154.8c-4.4-49.9,6.4-97.8,27.9-142.7c24.4-50.8,64.3-84.7,119-100
		c36-10.1,72.3-15,110.1-9.3c36.9,5.6,72.9,13.6,107.9,26.4c8.4,3.1,16.7,6.4,25.8,3.5c1.7,11.4,10.1,9.5,17.8,9
		c2.5,9.9,10.1,9.5,17.8,8.9C1589.4,5375,1596.6,5375.4,1604.6,5374.4z"/>
	<path d="M3833.2,6887.3c-1.2-39.1,6.8-75.4,20.6-110.1c25.3-63.5,71.2-104.1,138.7-120.3c39.8-9.6,79.2-9.9,119.2-2.8
		c94.3,16.8,177.7,57.7,252,116.7c76.3,60.5,122.3,139.7,139.8,236c9.3,51.1,5,100.4-9.6,149.5c-6,20.1-14.8,38.8-26,56.4
		c-30,47.1-73.6,72.1-128.4,78.4c-41.9,4.8-83.1-0.5-123.3-12.3c-19.9-5.8-39.6-12.7-58.8-20.4c-68.1-27.1-130.6-64.1-188.5-108.7
		c-57.9-44.6-99.7-101.4-121.1-172C3838.7,6947.9,3831.9,6917.5,3833.2,6887.3z"/>
	<path d="M3618.5,6609.4c-0.9,47.5-8,85.4-22.3,121.6c-5.4,13.7-12.8,26.8-20.6,39.3c-26.8,42.9-66.4,66.5-115.7,75.3
		c-35.8,6.4-71.2,3.7-106.2-3.7c-42.3-9-82.8-23.3-121.8-42c-51-24.4-99.2-53.6-144.9-87c-38.9-28.4-71-63.1-96.2-104
		c-33.5-54.5-50.1-113.9-48.5-177.9c1-37.5,9.8-73.5,25.1-107.7c26.8-59.6,72.8-95.3,136.2-111.1c47.7-11.9,94.5-8.4,141.1,2.6
		c92.8,21.9,175.5,64.7,246.7,127.8c64.2,56.9,104.5,128.6,119.7,213.6C3614.5,6576.6,3616.7,6597.2,3618.5,6609.4z"/>
	<path d="M695.3,4919.7c1.7,11.5,10.3,9.1,17.8,8.9c-0.4,5,2.5,7.9,6.4,10.3c19.9,12.9,40.1,25.3,59.6,38.8
		c43.3,29.9,78.8,67.4,106.8,111.8c39,61.7,58.4,129.1,58.5,202.1c0.1,36.1-8.2,70.6-20.3,104.2c-7.6,21-19,40.2-33.2,57.5
		c-22.3,27.1-50.4,45.5-84.4,54.6c-36.3,9.8-72.6,10.9-109.9,3.7c-51.4-9.9-100.2-26.6-146.9-49.4c-46.7-22.8-90.9-49.9-133-80.4
		c-24.1-17.5-45.7-37.7-65.2-60.2c-48.2-55.6-75.4-120.5-81.7-193.3c-4.9-55.9,6.9-109.4,34.6-158.4c30.5-54,78.9-82.9,138.9-93.7
		c39.9-7.2,79.8-5,119.3,3.4c30.5,6.5,60.4,15.1,89.2,26.9c8.5,3.5,16.7,6,25.8,4.3c0,4.3,1.9,7.6,6.1,8.4
		C687.4,4919.9,691.4,4919.6,695.3,4919.7z"/>
</g>
</svg>
