<?xml version="1.0" encoding="utf-8"?>
<!-- Generator: Adobe Illustrator 24.0.2, SVG Export Plug-In . SVG Version: 6.00 Build 0)  -->
<svg version="1.1" xmlns="http://www.w3.org/2000/svg" xmlns:xlink="http://www.w3.org/1999/xlink" x="0px" y="0px"
	 viewBox="0 0 96.7 89.6" style="enable-background:new 0 0 96.7 89.6;" xml:space="preserve">
<style type="text/css">
	.st0{stroke:#000000;stroke-width:1.5;stroke-miterlimit:10;}
</style>
<g id="Слой_2">
</g>
<g id="Слой_1">
	<g>
		<path class="st0" d="M94.2,53.8c0-2.1-0.7-4.1-1.9-5.6c2.2-1.7,3.5-4.3,3.5-7.3c0-5.1-4.1-9.2-9.2-9.2c-3.6,0-8.8,0-13.3,0.1
			c-2,0.1-6.1,0.1-11.8-0.1c2.4-7.3,5.4-16.6,6-19.8c0.9-4.8-1.8-9-6.8-10.5S50.6,2,48.9,6.2c-2.8,6.9-11.6,23.1-21.1,29
			c-0.2,0.1-0.4,0.3-0.6,0.5c-1.3-1.1-3-1.8-4.8-1.8H8.3c-4.2,0-7.5,3.4-7.5,7.5v36.7c0,4.2,3.4,7.5,7.5,7.5h13.9
			c2.3,0,4.4-1.1,5.8-2.7c4.1,3,11.4,5.9,19.8,5.9h34c5.1,0,9.2-4.1,9.2-9.2c0-2.1-0.7-4.1-1.9-5.6c2.2-1.7,3.5-4.3,3.5-7.3
			c0-2.1-0.7-4.1-1.9-5.6C92.8,59.4,94.2,56.8,94.2,53.8z M24.3,78.2c0,1.1-0.9,2-2,2h-14c-1.1,0-2-0.9-2-2V41.4c0-1.1,0.9-2,2-2
			h13.9c1.1,0,2,0.9,2,2v36.8H24.3z M86.6,44.6h-0.3c-1.3,0-2.4,1-2.5,2.3v0.4c-0.1,1.3,0.7,2.5,1.9,2.8l0,0
			c1.5,0.4,2.8,1.7,2.9,3.2c0.2,2.2-1.5,4.1-3.7,4.1h-0.3c-1.3,0-2.4,1-2.5,2.3v0.4c-0.1,1.3,0.7,2.5,1.9,2.8l0,0
			c1.5,0.4,2.8,1.7,2.9,3.2c0.2,2.2-1.5,4.1-3.7,4.1h-0.3c-1.3,0-2.4,1-2.5,2.3v0.4c-0.1,1.3,0.7,2.5,1.9,2.8l0,0
			c1.5,0.4,2.8,1.7,2.9,3.2c0.2,2.2-1.5,4.1-3.7,4.1h-34c-9.8,0-16.7-4.4-18-6.1l0.1-36c0-0.6,0.3-1.1,0.8-1.4
			c11.6-7.1,21-25.7,23.3-31.6c0.7-1.7,3.1-2.1,5.1-1.5c1.1,0.3,3.5,1.3,3,4.2c-0.4,2.2-2.5,9.2-5.8,19c-0.2,0.6-0.3,1.3-0.3,1.9
			c0.1,3.3,2.7,5.6,5.6,5.6c5.7,0,9.7,0,11.9,0c4.3-0.1,9.5-0.1,13-0.1c1.8,0,3.4,1.2,3.8,3C90.7,42.6,88.9,44.6,86.6,44.6z"/>
		<circle class="st0" cx="15.3" cy="70.8" r="4"/>
	</g>
</g>
</svg>
