<?xml version="1.0" encoding="utf-8"?>
<!-- Generator: Adobe Illustrator 24.0.2, SVG Export Plug-In . SVG Version: 6.00 Build 0)  -->
<svg version="1.1" id="Слой_1" xmlns="http://www.w3.org/2000/svg" xmlns:xlink="http://www.w3.org/1999/xlink" x="0px" y="0px"
	 viewBox="0 0 25 20" style="enable-background:new 0 0 25 20;" xml:space="preserve">
<style type="text/css">
	.st0{fill:#03C871;}
</style>
<path class="st0" d="M21,13.5l2.3-8.3h-1.8L19.4,13H8.5L6.2,3.9C6,3.2,5.3,2.6,4.5,2.6H2.6C2.1,2.6,1.8,3,1.8,3.5s0.4,0.9,0.9,0.9
	h1.9l2.3,9.1c0.2,0.8,0.9,1.3,1.7,1.3h10.8C20.1,14.8,20.8,14.3,21,13.5z"/>
<path class="st0" d="M15.6,17.4c0,1.4,1.2,2.6,2.6,2.6s2.6-1.2,2.6-2.6s-1.2-2.6-2.6-2.6C16.8,14.8,15.6,16,15.6,17.4z M18.3,16.5
	c0.5,0,0.9,0.4,0.9,0.9s-0.4,0.9-0.9,0.9s-0.9-0.4-0.9-0.9S17.8,16.5,18.3,16.5z"/>
<path class="st0" d="M7.8,17.4c0,1.4,1.2,2.6,2.6,2.6s2.6-1.2,2.6-2.6s-1.2-2.6-2.6-2.6C9,14.8,7.8,16,7.8,17.4z M10.4,16.5
	c0.5,0,0.9,0.4,0.9,0.9s-0.4,0.9-0.9,0.9s-0.9-0.4-0.9-0.9C9.6,16.9,9.9,16.5,10.4,16.5z"/>
<g>
	<g>
		<path class="st0" d="M18.7,0l-5.2,6.7L9.9,3.9L8.6,5.5l5.3,4.1l6.4-8.3L18.7,0z"/>
	</g>
</g>
</svg>
